<svg xmlns="http://www.w3.org/2000/svg" viewBox="0 0 293.56 108.96">
  <title>Asset 2</title>
  <g>
    <text transform="translate(62.17 36.85)" style="font-size: 43px;fill: #0d3a53;font-family: OpenSans-Semibold, Open Sans;font-weight: 600;letter-spacing: -0.025004542151162792em">Deveron </text>
    <text transform="translate(64.17 97.1)" style="font-size: 42px;fill: #0d3a53;font-family: OpenSans-Semibold, Open Sans;font-weight: 600;letter-spacing: -0.029994419642857144em">Paddlers</text>
    <rect x="51.91" y="51.03" width="170.33" height="4" style="fill: #0d3a53"/>
    <path d="M222.18,56.74a33,33,0,0,1-3.07-2.09l.08-3s7.86-3.43,9.34-4c13.76-5.52,51.66-9.11,61.32-2.16,5.1,3.68,5.1,10.49-1,14.4C277,67.53,233.92,62.69,222.18,56.74Z" style="fill: #0d3a53"/>
    <path d="M71.5,55.75c.85-.46,3-1.58,3-1.58l-.16-2.75s-8-4-9.53-4.54c-14-5-51.95-7.3-61.36,0-5,3.85-4.73,10.66,1.48,14.36C17.09,68.44,60,62.1,71.5,55.75Z" style="fill: #0d3a53"/>
    <line x1="0.04" y1="52.74" x2="293.48" y2="53.32" style="fill: none;stroke: #dfe3e8;stroke-miterlimit: 10"/>
  </g>
</svg>
